<svg width="40" height="40" viewBox="0 0 40 40" fill="none" xmlns="http://www.w3.org/2000/svg">
<rect width="40.0023" height="40" rx="2" fill="white"/>
<path fill-rule="evenodd" clip-rule="evenodd" d="M6.06051 11.4892V6.04251H24.4372V11.4892H6.06051ZM4.15948 5.36167C4.15948 4.60964 4.72689 4 5.42684 4H25.0709C25.7708 4 26.3382 4.60964 26.3382 5.36167V12.17C26.3382 12.9221 25.7708 13.5317 25.0709 13.5317H5.42684C4.72689 13.5317 4.15948 12.9221 4.15948 12.17V5.36167ZM36.0023 8.59815L30.7744 5.36418V7.74711H26.3387V9.44919H30.7744V11.8321L36.0023 8.59815ZM33.9409 22.7176V17.2709H15.5642V22.7176H33.9409ZM35.8419 16.59C35.8419 15.838 35.2745 15.2284 34.5746 15.2284H14.9305C14.2306 15.2284 13.6632 15.838 13.6632 16.59V18.9759H9.22785V16.5929L4 19.8269L9.22785 23.0609V20.678H13.6632V23.3984C13.6632 24.1504 14.2306 24.7601 14.9305 24.7601H34.5746C35.2745 24.7601 35.8419 24.1504 35.8419 23.3984V16.59ZM6.06074 28.5107V33.9573H24.4374V28.5107H6.06074ZM5.42706 26.4681C4.72712 26.4681 4.1597 27.0778 4.1597 27.8298V34.6382C4.1597 35.3902 4.72712 35.9998 5.42706 35.9998H25.0711C25.771 35.9998 26.3385 35.3902 26.3385 34.6382V31.9175H30.7738V34.3005L36.0016 31.0665L30.7738 27.8325V30.2154H26.3385V27.8298C26.3385 27.0778 25.771 26.4681 25.0711 26.4681H5.42706Z" fill="#6E56CF"/>
</svg>
